<svg xmlns="http://www.w3.org/2000/svg" xmlns:xlink="http://www.w3.org/1999/xlink" xmlns:lucid="lucid" width="1625.3" height="1083"><g transform="translate(340 220)" lucid:page-tab-id="0_0"><path d="M-1696-1296h3456v2656h-3456z" fill="#fff"/><path d="M143.95 84.03H131c-.65 0-1.26-.38-1.52-.98l-18.14-38.9h-7.32c-.9 0-1.7-.75-1.7-1.68V31.25c0-.92.8-1.68 1.7-1.68h16.15c.7 0 1.26.38 1.52.98l18.1 38.9h4.15c.9 0 1.68.75 1.68 1.73v11.17c0 .92-.78 1.68-1.68 1.68zm-11.9-3.43h10.16v-7.73h-3.5c-.64 0-1.25-.38-1.5-.98l-18.07-38.96h-13.38v7.8h6.67c.7 0 1.3.37 1.56.97z" stroke="#fff" stroke-opacity="0" fill="#d86613"/><path d="M108.8 84.03H95c-.9 0-1.68-.77-1.68-1.7 0-.28.05-.48.17-.72l14.45-30.26c.3-.6.87-.97 1.53-.97.67 0 1.24.33 1.54.94l6.9 14.32c.23.47.23.97 0 1.45l-7.55 16c-.3.6-.87.96-1.54.96zm-11.1-3.4h10.02l6.8-14.27-5.1-10.37z" stroke="#fff" stroke-opacity="0" fill="#d86613"/><path d="M120 100c-22.08 0-40-17.92-40-40s17.92-40 40-40 40 17.92 40 40-17.92 40-40 40zm0-76.56c-20.24 0-36.56 16.32-36.56 36.56 0 20.24 16.32 36.56 36.56 36.56 20.24 0 36.56-16.32 36.56-36.56 0-20.24-16.32-36.56-36.56-36.56z" stroke="#fff" stroke-opacity="0" fill="#d86613"/><use xlink:href="#a" transform="matrix(1,0,0,1,50,109) translate(-20.555555555555543 17.77777777777778)"/><path d="M220 42.67a6 6 0 0 1 6-6h228a6 6 0 0 1 6 6V94a6 6 0 0 1-6 6H226a6 6 0 0 1-6-6z" stroke="#000" stroke-opacity="0" fill="#fff" fill-opacity="0"/><use xlink:href="#b" transform="matrix(1,0,0,1,225,41.66666666666659) translate(0 17.77777777777778)"/><use xlink:href="#c" transform="matrix(1,0,0,1,225,41.66666666666659) translate(109.5679012345679 17.77777777777778)"/><use xlink:href="#d" transform="matrix(1,0,0,1,225,41.66666666666659) translate(0 44.44444444444444)"/><use xlink:href="#e" transform="matrix(1,0,0,1,225,41.66666666666659) translate(91.1111111111111 44.44444444444444)"/><path d="M143.95 557.37H131c-.65 0-1.26-.38-1.52-.98l-18.14-38.9h-7.32c-.9 0-1.7-.77-1.7-1.7v-11.2c0-.94.8-1.7 1.7-1.7h16.15c.7 0 1.26.38 1.52.98l18.1 38.9h4.15c.9 0 1.68.75 1.68 1.73v11.18c0 .92-.78 1.7-1.68 1.7zm-11.9-3.43h10.16v-7.74h-3.5c-.64 0-1.25-.38-1.5-.98l-18.07-38.94h-13.38v7.8h6.67c.7 0 1.3.37 1.56.97z" stroke="#fff" stroke-opacity="0" fill="#d86613"/><path d="M108.8 557.37H95c-.9 0-1.68-.78-1.68-1.72 0-.27.05-.47.17-.7l14.45-30.27c.3-.6.87-.98 1.53-.98.67 0 1.24.34 1.54.94l6.9 14.3c.23.48.23 1 0 1.46l-7.55 16c-.3.6-.87.97-1.54.97zm-11.1-3.4h10.02l6.8-14.28-5.1-10.38z" stroke="#fff" stroke-opacity="0" fill="#d86613"/><path d="M120 573.33c-22.08 0-40-17.92-40-40s17.92-40 40-40 40 17.92 40 40-17.92 40-40 40zm0-76.56c-20.24 0-36.56 16.32-36.56 36.56 0 20.24 16.32 36.56 36.56 36.56 20.24 0 36.56-16.33 36.56-36.57 0-20.24-16.32-36.56-36.56-36.56z" stroke="#fff" stroke-opacity="0" fill="#d86613"/><use xlink:href="#f" transform="matrix(1,0,0,1,50,582.3333333333335) translate(-19.90740740740739 17.77777777777778)"/><path d="M220 516a6 6 0 0 1 6-6h228a6 6 0 0 1 6 6v51.33a6 6 0 0 1-6 6H226a6 6 0 0 1-6-6z" stroke="#000" stroke-opacity="0" fill="#fff" fill-opacity="0"/><use xlink:href="#b" transform="matrix(1,0,0,1,225,515) translate(0 17.77777777777778)"/><use xlink:href="#g" transform="matrix(1,0,0,1,225,515) translate(109.5679012345679 17.77777777777778)"/><use xlink:href="#h" transform="matrix(1,0,0,1,225,515) translate(0 44.44444444444444)"/><use xlink:href="#i" transform="matrix(1,0,0,1,225,515) translate(91.1111111111111 44.44444444444444)"/><path d="M143.95-135.97H131c-.65 0-1.26-.38-1.52-.98l-18.14-38.9h-7.32c-.9 0-1.7-.75-1.7-1.68v-11.22c0-.92.8-1.68 1.7-1.68h16.15c.7 0 1.26.38 1.52.98l18.1 38.9h4.15c.9 0 1.68.75 1.68 1.73v11.17c0 .92-.78 1.68-1.68 1.68zm-11.9-3.43h10.16v-7.73h-3.5c-.64 0-1.25-.38-1.5-.98l-18.07-38.96h-13.38v7.8h6.67c.7 0 1.3.37 1.56.97z" stroke="#fff" stroke-opacity="0" fill="#d86613"/><path d="M108.8-135.97H95c-.9 0-1.68-.77-1.68-1.7 0-.28.05-.48.17-.72l14.45-30.26c.3-.6.87-.97 1.53-.97.67 0 1.24.33 1.54.94l6.9 14.32c.23.47.23.97 0 1.45l-7.55 16c-.3.6-.87.96-1.54.96zm-11.1-3.4h10.02l6.8-14.27-5.1-10.37z" stroke="#fff" stroke-opacity="0" fill="#d86613"/><path d="M120-120c-22.08 0-40-17.92-40-40s17.92-40 40-40 40 17.92 40 40-17.92 40-40 40zm0-76.56c-20.24 0-36.56 16.32-36.56 36.56 0 20.24 16.32 36.56 36.56 36.56 20.24 0 36.56-16.32 36.56-36.56 0-20.24-16.32-36.56-36.56-36.56z" stroke="#fff" stroke-opacity="0" fill="#d86613"/><use xlink:href="#j" transform="matrix(1,0,0,1,50,-111) translate(-42.129629629629605 17.77777777777778)"/><path d="M220-177.33a6 6 0 0 1 6-6h228a6 6 0 0 1 6 6V-126a6 6 0 0 1-6 6H226a6 6 0 0 1-6-6z" stroke="#000" stroke-opacity="0" fill="#fff" fill-opacity="0"/><use xlink:href="#b" transform="matrix(1,0,0,1,225,-178.3333333333335) translate(0 17.77777777777778)"/><use xlink:href="#c" transform="matrix(1,0,0,1,225,-178.3333333333335) translate(109.5679012345679 17.77777777777778)"/><use xlink:href="#h" transform="matrix(1,0,0,1,225,-178.3333333333335) translate(0 44.44444444444444)"/><use xlink:href="#i" transform="matrix(1,0,0,1,225,-178.3333333333335) translate(91.1111111111111 44.44444444444444)"/><path d="M143.95 794.03H131c-.65 0-1.26-.38-1.52-.98l-18.14-38.9h-7.32c-.9 0-1.7-.75-1.7-1.68v-11.22c0-.92.8-1.68 1.7-1.68h16.15c.7 0 1.26.38 1.52.98l18.1 38.9h4.15c.9 0 1.68.75 1.68 1.73v11.17c0 .92-.78 1.68-1.68 1.68zm-11.9-3.43h10.16v-7.73h-3.5c-.64 0-1.25-.38-1.5-.98l-18.07-38.96h-13.38v7.8h6.67c.7 0 1.3.37 1.56.97z" stroke="#fff" stroke-opacity="0" fill="#d86613"/><path d="M108.8 794.03H95c-.9 0-1.68-.77-1.68-1.7 0-.28.05-.48.17-.72l14.45-30.26c.3-.6.87-.97 1.53-.97.67 0 1.24.33 1.54.94l6.9 14.32c.23.47.23.97 0 1.45l-7.55 16c-.3.6-.87.96-1.54.96zm-11.1-3.4h10.02l6.8-14.27-5.1-10.37z" stroke="#fff" stroke-opacity="0" fill="#d86613"/><path d="M120 810c-22.08 0-40-17.92-40-40s17.92-40 40-40 40 17.92 40 40-17.92 40-40 40zm0-76.56c-20.24 0-36.56 16.32-36.56 36.56 0 20.24 16.32 36.56 36.56 36.56 20.24 0 36.56-16.32 36.56-36.56 0-20.24-16.32-36.56-36.56-36.56z" stroke="#fff" stroke-opacity="0" fill="#d86613"/><use xlink:href="#k" transform="matrix(1,0,0,1,50,819.0000000000002) translate(-35.33950617283948 17.77777777777778)"/><path d="M220 752.67a6 6 0 0 1 6-6h228a6 6 0 0 1 6 6V804a6 6 0 0 1-6 6H226a6 6 0 0 1-6-6z" stroke="#000" stroke-opacity="0" fill="#fff" fill-opacity="0"/><use xlink:href="#b" transform="matrix(1,0,0,1,225,751.6666666666669) translate(0 17.77777777777778)"/><use xlink:href="#l" transform="matrix(1,0,0,1,225,751.6666666666669) translate(109.5679012345679 17.77777777777778)"/><use xlink:href="#d" transform="matrix(1,0,0,1,225,751.6666666666669) translate(0 44.44444444444444)"/><use xlink:href="#m" transform="matrix(1,0,0,1,225,751.6666666666669) translate(91.1111111111111 44.44444444444444)"/><path d="M143.95 320.7H131c-.65 0-1.26-.38-1.52-.98l-18.14-38.9h-7.32c-.9 0-1.7-.75-1.7-1.68v-11.22c0-.92.8-1.7 1.7-1.7h16.15c.7 0 1.26.4 1.52 1l18.1 38.88h4.15c.9 0 1.68.77 1.68 1.75V319c0 .94-.78 1.7-1.68 1.7zm-11.9-3.43h10.16v-7.74h-3.5c-.64 0-1.25-.38-1.5-.98l-18.07-38.94h-13.38v7.8h6.67c.7 0 1.3.38 1.56.98z" stroke="#fff" stroke-opacity="0" fill="#d86613"/><path d="M108.8 320.7H95c-.9 0-1.68-.77-1.68-1.72 0-.27.05-.47.17-.7L107.92 288c.3-.6.87-.97 1.53-.97.67 0 1.24.34 1.54.95l6.9 14.3c.23.48.23.98 0 1.45l-7.55 16c-.3.6-.87.97-1.54.97zm-11.1-3.4h10.02l6.8-14.28-5.1-10.36z" stroke="#fff" stroke-opacity="0" fill="#d86613"/><path d="M120 336.67c-22.08 0-40-17.92-40-40s17.92-40 40-40 40 17.92 40 40-17.92 40-40 40zm0-76.56c-20.24 0-36.56 16.33-36.56 36.57 0 20.24 16.32 36.56 36.56 36.56 20.24 0 36.56-16.32 36.56-36.56 0-20.24-16.32-36.56-36.56-36.56z" stroke="#fff" stroke-opacity="0" fill="#d86613"/><use xlink:href="#n" transform="matrix(1,0,0,1,50,345.66666666666674) translate(-26.080246913580226 17.77777777777778)"/><path d="M220 279.33a6 6 0 0 1 6-6h228a6 6 0 0 1 6 6v51.34a6 6 0 0 1-6 6H226a6 6 0 0 1-6-6z" stroke="#000" stroke-opacity="0" fill="#fff" fill-opacity="0"/><use xlink:href="#b" transform="matrix(1,0,0,1,225,278.3333333333333) translate(0 17.77777777777778)"/><use xlink:href="#o" transform="matrix(1,0,0,1,225,278.3333333333333) translate(109.5679012345679 17.77777777777778)"/><use xlink:href="#h" transform="matrix(1,0,0,1,225,278.3333333333333) translate(0 44.44444444444444)"/><use xlink:href="#p" transform="matrix(1,0,0,1,225,278.3333333333333) translate(91.1111111111111 44.44444444444444)"/><path d="M1005.97 519.1v-12.6l-13.3-14.6-21.8 48.1 21.8 48.08 13.3-14.62v-12.7l-4.43 3.08v-6.15l4.43-2.32v-12.7l-4.43.1v-5.68l4.43.2v-12.4l-4.43-2.32v-4.33l4.43.86z" fill="#2e73b8"/><path d="M968.9 600l23.77-11.88v-96.24L968.9 480l-26.88 60.96 26.9 59.04z" fill="#5294cf"/><path d="M935.66 600h33.26V480h-33.26l-17.22 60.96L935.66 600z" fill="#2e73b8"/><path d="M935.64 600l-23.96-11.88-7.52-47.16 7.52-49.08 23.9-11.88.06 120z" fill="#205b99"/><path d="M1001.55 557.76l-8.9 4.33-23.75 5.1h-33.28l-23.22-5.1-.42-.1-.32-.1v-18.1l23.96 1.74h33.27l23.74-1.73 13.36-1.14h-4.45v-5.4h4.34l-13.26-.95-23.74-.76h-33.07l-24.17.58v-18.28h.32l23.85-5.68h33.06l23.74 5.68 8.9 4.7v-2.97l4.46-.38-13.36-9.34-23.74-7.7h-33.07l-24.17 7.98v-18.27L900 506.5v12.7l3.4.37v3.08l-3.4 1.92v12.7h3.4v5.4l-3.4.08v12.6l3.4 1.93v3.17l-3.4.4v12.6l11.66 14.6V569.8l23.96 7.4h33.27l23.74-7.4 13.36-8.94-4.45-.4v-2.68z" fill="#19486f"/><use xlink:href="#q" transform="matrix(1,0,0,1,900,600) translate(9.882716049382715 17.77777777777778)"/><use xlink:href="#r" transform="matrix(1,0,0,1,900,600) translate(-6.722222222222221 44.44444444444444)"/><path d="M1025.3 526a6 6 0 0 1 6-6h228a6 6 0 0 1 6 6v48a6 6 0 0 1-6 6h-228a6 6 0 0 1-6-6z" stroke="#000" stroke-opacity="0" fill="#fff" fill-opacity="0"/><use xlink:href="#s" transform="matrix(1,0,0,1,1030.296296296296,525) translate(0 30.27777777777778)"/><use xlink:href="#t" transform="matrix(1,0,0,1,1030.296296296296,525) translate(85.67901234567901 30.27777777777778)"/><path d="M560 236.67h120v120H560v-120z" stroke="#fff" stroke-opacity="0" fill="#693cc5"/><path d="M637.6 335.1c-.35 0-.64-.17-.93-.32-.43-.3-.67-.77-.67-1.3v-73.62c0-.54.3-1.08.77-1.4.48-.3 1.08-.3 1.6-.06l20.8 10.22c.56.23.9.77.9 1.38v56.56c.02.77-.4 1.38-1.1 1.6l-20.8 6.93h-.56zm1.62-72.63v68.78l17.6-5.85V271zM602.4 335.08h-.52l-20.8-6.9c-.67-.24-1.1-.93-1.08-1.62V270c0-.6.33-1.15.9-1.38l20.8-10.22c.52-.23 1.1-.23 1.6.07.48.3.75.85.75 1.4v73.6c0 .54-.24 1-.68 1.3-.28.24-.6.3-.98.3zm-19.2-9.6l17.6 5.84v-68.85l-17.6 8.6z" stroke="#fff" stroke-opacity="0" fill="#fff"/><path d="M636 280.67h-4.8v-3.2h4.8zm-9.6 0h-4.8v-3.2h4.8zm-9.6 0H612v-3.2h4.8zm-9.6 0h-4.8v-3.2h4.8zM636 315.87h-4.8v-3.2h4.8zm-9.6 0h-4.8v-3.2h4.8zm-9.6 0H612v-3.2h4.8zm-9.6 0h-4.8v-3.2h4.8zM612.98 302.17l-6.02-5.13c-.67-.57-.75-1.6-.18-2.26.06-.07.1-.12.18-.18l6-5.13 2.08 2.42-4.58 3.97 4.58 3.9zM627.04 302.17l-2.08-2.43 4.57-3.87-4.6-3.9 2.1-2.5 6 5.12c.68.56.76 1.57.2 2.25l-.2.16z" stroke="#fff" stroke-opacity="0" fill="#fff"/><path d="M615.3 305.54l6.35-18.8 3.04 1.03-6.37 18.8-3.04-1.03z" stroke="#fff" stroke-opacity="0" stroke-width=".32" fill="#fff"/><use xlink:href="#u" transform="matrix(1,0,0,1,530,365.66666666666674) translate(25.308641975308646 17.77777777777778)"/><use xlink:href="#v" transform="matrix(1,0,0,1,530,365.66666666666674) translate(117.71604938271605 17.77777777777778)"/><use xlink:href="#w" transform="matrix(1,0,0,1,530,365.66666666666674) translate(44.35185185185185 44.44444444444444)"/><path d="M700 268.33a6 6 0 0 1 6-6h228a6 6 0 0 1 6 6V325a6 6 0 0 1-6 6H706a6 6 0 0 1-6-6z" stroke="#000" stroke-opacity="0" fill="#fff" fill-opacity="0"/><use xlink:href="#x" transform="matrix(1,0,0,1,705,267.3333333333334) translate(0 19.72222222222222)"/><use xlink:href="#y" transform="matrix(1,0,0,1,705,267.3333333333334) translate(47.46296296296295 19.72222222222222)"/><use xlink:href="#z" transform="matrix(1,0,0,1,705,267.3333333333334) translate(122.01851851851849 19.72222222222222)"/><use xlink:href="#A" transform="matrix(1,0,0,1,705,267.3333333333334) translate(0 49.05555555555555)"/><path d="M160.5-160l4.9.1 5.25.34 5.1.54 4.96.73 4.9.94 4.8 1.13 4.74 1.32 4.7 1.52 4.7 1.75 4.7 1.98 4.73 2.22 4.77 2.5 4.83 2.8 4.92 3.1 5.03 3.5 5.18 3.95 5.37 4.44 5.58 5.03 5.85 5.72 6.18 6.58 6.6 7.64 7.1 8.98 7.78 10.72 8.7 13.1 10.03 16.62 12.23 22.32 17.14 34.7 74.6 162.8 12.24 22.33 10.05 16.6 8.7 13.13 7.78 10.72 7.1 8.98 6.6 7.64 6.17 6.58 5.85 5.73 5.58 5.03 5.36 4.45 5.17 3.93 5.04 3.5 4.93 3.13 4.83 2.8 4.77 2.5 4.72 2.22 4.7 1.98 4.7 1.74 4.7 1.53 4.76 1.33 4.8 1.13 4.9.93 4.36.64" stroke="#282c33" stroke-linejoin="round" fill="none"/><path d="M160.53-160.5l-.02 1h-.53l.03-.5-.02-.5z" stroke="#282c33" stroke-width=".05" fill="#282c33"/><path d="M558.4 296.56l-14.55 3.7.6-9.25z" stroke="#282c33" fill="#282c33"/><path d="M160.5 60l9.77.2 9.63.62 9.1.95 8.64 1.28 8.28 1.57 7.96 1.87 7.7 2.15 7.53 2.44 7.38 2.73 7.3 3.06 7.22 3.4 7.26 3.8 7.33 4.23 7.47 4.75 7.73 5.37 8.1 6.16 8.68 7.2 9.6 8.63 11.15 10.95 14.7 15.7 68.64 78.2 11.16 10.95 9.6 8.64 8.67 7.2 8.1 6.15 7.73 5.37 7.48 4.74 7.34 4.23 7.26 3.8 7.23 3.4 7.3 3.07 7.36 2.74 7.5 2.44 7.72 2.15 7.96 1.87 8.28 1.58 8.64 1.28 9.1.95 3.53.22" stroke="#282c33" stroke-linejoin="round" fill="none"/><path d="M160.53 59.5l-.02 1h-.53l.03-.5-.02-.5z" stroke="#282c33" stroke-width=".05" fill="#282c33"/><path d="M558.38 296.6l-14.42 4.12.34-9.26z" stroke="#282c33" fill="#282c33"/><path d="M160.5 296.67h383.12" stroke="#282c33" stroke-linejoin="round" fill="none"/><path d="M160.52 297.17h-.55l.03-.5-.02-.5h.54z" stroke="#282c33" stroke-width=".05" fill="#282c33"/><path d="M558.38 296.67l-14.26 4.63v-9.27z" stroke="#282c33" fill="#282c33"/><path d="M160.5 533.32l9.77-.2 9.63-.6 9.1-.96 8.64-1.27 8.28-1.6 7.96-1.86 7.7-2.15 7.53-2.45 7.38-2.75 7.3-3.06 7.22-3.4 7.26-3.8 7.33-4.23 7.47-4.74 7.73-5.38 8.1-6.15 8.68-7.2 9.6-8.63 11.15-10.95 14.7-15.7 68.64-78.2 11.16-10.95 9.6-8.64 8.67-7.2 8.1-6.14 7.73-5.38 7.48-4.75 7.34-4.24 7.26-3.8 7.23-3.4 7.3-3.06 7.36-2.75 7.5-2.44 7.72-2.14 7.96-1.87 8.28-1.6 8.64-1.26 9.1-.96 3.53-.22" stroke="#282c33" stroke-linejoin="round" fill="none"/><path d="M160.53 533.82h-.56l.03-.5-.02-.5h.53z" stroke="#282c33" stroke-width=".05" fill="#282c33"/><path d="M558.38 296.73l-14.08 5.15-.34-9.27z" stroke="#282c33" fill="#282c33"/><path d="M160.5 770l4.73-.1 5.06-.33 4.9-.5 4.83-.73 4.73-.9 4.66-1.1 4.6-1.28 4.6-1.5 4.57-1.7 4.57-1.92 4.6-2.16 4.65-2.44 4.72-2.72 4.8-3.05 4.93-3.43 5.07-3.85 5.24-4.35 5.46-4.9 5.72-5.62L259 721l6.43-7.46 6.93-8.75 7.56-10.43 8.4-12.68 9.62-15.9 11.5-20.97 15.17-30.7 85.96-192.3 11.5-20.96 9.6-15.9 8.42-12.67 7.56-10.42 6.93-8.75 6.43-7.46 6.04-6.43 5.72-5.6 5.46-4.93 5.24-4.33 5.07-3.84 4.92-3.43 4.8-3.05 4.73-2.73 4.65-2.43 4.6-2.18 4.58-1.92 4.58-1.7 4.6-1.5 4.6-1.28 4.66-1.1 4.73-.9 3.7-.54" stroke="#282c33" stroke-linejoin="round" fill="none"/><path d="M160.53 770.5h-.56l.03-.5-.02-.5h.53z" stroke="#282c33" stroke-width=".05" fill="#282c33"/><path d="M558.4 296.78l-13.93 5.6-.63-9.26z" stroke="#282c33" fill="#282c33"/><path d="M-245.18 314.47h-69.7c-2.8 0-5.12-2.3-5.12-5.08v-45.66c0-2.8 2.32-5.07 5.12-5.07h69.7c2.8 0 5.1 2.28 5.1 5.07v45.6c0 2.84-2.23 5.13-5.02 5.13h-.08zm-69.62-52.4c-.96 0-1.76.73-1.76 1.67v45.6c0 .95.8 1.73 1.76 1.73h69.7c.96 0 1.67-.78 1.67-1.73v-45.6c0-.94-.7-1.67-1.67-1.67zM-246 336.67h-68.05c-3.28-.02-5.92-2.66-5.92-5.93v-7.34c0-3.27 2.64-5.94 5.92-5.96H-246c3.28 0 6 2.67 6 5.96v7.34c0 3.3-2.72 5.93-6 5.93zm-68.05-15.85c-1.36.02-2.48 1.18-2.48 2.58v7.34c0 1.4 1.12 2.52 2.48 2.54H-246c1.44 0 2.56-1.15 2.56-2.57v-7.3c0-1.42-1.12-2.58-2.56-2.58z" stroke="#fff" stroke-opacity="0" fill="#232f3e"/><path d="M-248.1 308.1h-63.8c-.95 0-1.7-.76-1.7-1.67v-39.77c0-.9.75-1.7 1.7-1.7h63.8c.95 0 1.7.8 1.7 1.7v39.77c0 .9-.75 1.68-1.7 1.68zm-62.06-3.4h60.32v-36.32h-60.32zM-267.26 323.8h19.16c1.13 0 1.7.56 1.7 1.7v3.18c0 1.13-.57 1.7-1.7 1.7h-19.16c-1.12 0-1.7-.57-1.7-1.7v-3.2c0-1.12.58-1.68 1.7-1.68z" stroke="#fff" stroke-opacity="0" fill="#232f3e"/><g><use xlink:href="#B" transform="matrix(1,0,0,1,-350,345.66666666666674) translate(39.22839506172839 17.77777777777778)"/></g><path d="M-239.56 297.66l2.96-.07 3.4-.22 3.3-.35 3.25-.48 3.2-.6 3.2-.76 3.15-.9 3.16-1 3.16-1.2 3.18-1.33 3.2-1.5 3.26-1.7 3.32-1.93 3.4-2.15 3.47-2.43 3.6-2.73 3.7-3.08 3.9-3.5 4.06-3.98 4.3-4.58 4.57-5.3 4.9-6.17 5.3-7.3 5.8-8.75 6.45-10.68 7.36-13.4 8.66-17.5 10.86-24.5 16.22-41.23 58.7-160.3 10.88-24.5 8.66-17.5 7.35-13.4 6.47-10.7 5.8-8.73 5.3-7.3 4.9-6.18 4.56-5.3 4.3-4.57 4.06-4 3.87-3.5 3.72-3.08 3.6-2.73 3.47-2.43 3.38-2.15 3.32-1.9 3.25-1.7 3.22-1.53 3.18-1.34 3.16-1.18 3.15-1.02 3.16-.9 3.17-.73.36-.07" stroke="#282c33" stroke-linejoin="round" fill="none"/><path d="M-239.54 298.16h-.53v-1h.5z" stroke="#282c33" stroke-width=".05" fill="#282c33"/><path d="M78.4-159.84l-13.73 6.06-.94-9.22z" stroke="#282c33" fill="#282c33"/><path d="M-239.56 297.66l6.1-.13 6.25-.4 5.98-.62 5.75-.84 5.56-1.06 5.38-1.27 5.27-1.47 5.17-1.68 5.1-1.9 5.04-2.1 5.03-2.38 5.03-2.63 5.08-2.94 5.17-3.27 5.27-3.67 5.44-4.14 5.67-4.7 5.98-5.38 6.4-6.3 7.06-7.5 8.02-9.32 9.8-12.4 14.78-20.44 45.1-65 9.8-12.4 8.04-9.33 7.05-7.52 6.4-6.3 5.98-5.38 5.67-4.7 5.44-4.12 5.27-3.67 5.15-3.26 5.1-2.94 5.03-2.63 5.03-2.37 5.04-2.12 5.1-1.9 5.16-1.68 5.27-1.47 5.4-1.26L55.4 62l5.76-.84 2.5-.26" stroke="#282c33" stroke-linejoin="round" fill="none"/><path d="M-239.54 298.16h-.53v-1h.5z" stroke="#282c33" stroke-width=".05" fill="#282c33"/><path d="M78.38 60.1l-14 5.4-.5-9.26z" stroke="#282c33" fill="#282c33"/><path d="M-239.56 297.67h303.2" stroke="#282c33" stroke-linejoin="round" fill="none"/><path d="M-239.55 298.17h-.52v-1h.52z" stroke="#282c33" stroke-width=".05" fill="#282c33"/><path d="M78.42 297.67l-14.27 4.63v-9.27z" stroke="#282c33" fill="#282c33"/><path d="M-239.56 297.68l6.14.12 6.3.4 6.04.63 5.8.86 5.6 1.06 5.42 1.27 5.3 1.48 5.2 1.7 5.12 1.9 5.07 2.14 5.06 2.38 5.06 2.65 5.1 2.95 5.2 3.3 5.3 3.68 5.47 4.15 5.7 4.72 6.02 5.43 6.47 6.34 7.12 7.6 8.15 9.45 10.05 12.7L-93 396.56l41.8 59.84 10.04 12.7 8.15 9.47 7.1 7.6 6.48 6.33 6.02 5.43 5.7 4.72 5.48 4.15 5.3 3.7 5.2 3.28 5.1 2.95 5.06 2.65 5.06 2.38 5.07 2.14 5.12 1.9 5.2 1.7 5.3 1.47 5.42 1.27 5.6 1.07 5.8.87 2.63.27" stroke="#282c33" stroke-linejoin="round" fill="none"/><path d="M-239.54 297.18l-.02 1h-.5v-1z" stroke="#282c33" stroke-width=".05" fill="#282c33"/><path d="M78.38 533.25l-14.5 3.85.5-9.26z" stroke="#282c33" fill="#282c33"/><path d="M-239.56 297.68l2.86.06 3.28.2 3.2.34 3.17.47 3.13.6 3.1.72 3.07.86 3.08 1 3.08 1.15 3.1 1.3 3.15 1.48 3.18 1.66 3.24 1.88 3.32 2.1 3.4 2.37 3.5 2.67 3.66 3.02 3.8 3.43 4 3.9 4.2 4.5 4.48 5.18 4.8 6.06 5.2 7.15 5.67 8.55 6.32 10.43 7.15 13.03 8.36 16.9 10.3 23.23 14.47 36.73 67 187.08 10.3 23.24 8.36 16.88 7.16 13.03 6.3 10.42 5.68 8.56 5.2 7.15 4.8 6.06 4.46 5.18 4.22 4.5 4 3.9 3.8 3.43 3.64 3.03 3.52 2.67 3.4 2.37 3.32 2.1 3.24 1.87 3.18 1.67 3.14 1.48 3.1 1.3 3.1 1.16 3.06 1 3.08.86 2.97.7" stroke="#282c33" stroke-linejoin="round" fill="none"/><path d="M-239.54 297.18l-.02 1h-.5v-1z" stroke="#282c33" stroke-width=".05" fill="#282c33"/><path d="M78.4 769.83l-14.68 3.12.97-9.22z" stroke="#282c33" fill="#282c33"/><path d="M696.28 345.4l.56.1 3.1.73 3.04.85 3 .98 3 1.1 2.96 1.26 2.97 1.4 3 1.56 3.02 1.74 3.07 1.95 3.13 2.18 3.22 2.45 3.33 2.76 3.48 3.13 3.65 3.57 3.9 4.15 4.2 4.87 4.63 5.83 5.24 7.23 6.25 9.42 8.36 13.87 41.6 74.54 6.25 9.42 5.24 7.23 4.63 5.84 4.2 4.86 3.9 4.15 3.64 3.6 3.48 3.12 3.33 2.76 3.22 2.45 3.14 2.17 3.08 1.95 3.02 1.75 3 1.56 2.96 1.4 2.97 1.25 2.98 1.12 3.02.98 3.04.85 3.1.72.56.1" stroke="#282c33" stroke-linejoin="round" fill="none"/><path d="M681.6 343.94l14.67-3.2-.92 9.22zM898.4 549.84l-14.66 3.2.9-9.23z" stroke="#282c33" fill="#282c33"/><defs><path fill="#4c535d" d="M114-157C55-157 80-60 75 0H25v-261h50l-1 109c12-26 28-41 61-42 86-1 58 113 63 194h-50c-7-57 23-157-34-157" id="C"/><path fill="#4c535d" d="M133-34C117-15 103 5 69 4 32 3 11-16 11-54c-1-60 55-63 116-61 1-26-3-47-28-47-18 1-26 9-28 27l-52-2c7-38 36-58 82-57s74 22 75 68l1 82c-1 14 12 18 25 15v27c-30 8-71 5-69-32zm-48 3c29 0 43-24 42-57-32 0-66-3-65 30 0 17 8 27 23 27" id="D"/><path fill="#4c535d" d="M135-194c87-1 58 113 63 194h-50c-7-57 23-157-34-157-59 0-34 97-39 157H25l-1-190h47c2 12-1 28 3 38 12-26 28-41 61-42" id="E"/><path fill="#4c535d" d="M88-194c31-1 46 15 58 34l-1-101h50l1 261h-48c-2-10 0-23-3-31C134-8 116 4 84 4 32 4 16-41 15-95c0-56 19-97 73-99zm17 164c33 0 40-30 41-66 1-37-9-64-41-64s-38 30-39 65c0 43 13 65 39 65" id="F"/><path fill="#4c535d" d="M25 0v-261h50V0H25" id="G"/><path fill="#4c535d" d="M185-48c-13 30-37 53-82 52C43 2 14-33 14-96s30-98 90-98c62 0 83 45 84 108H66c0 31 8 55 39 56 18 0 30-7 34-22zm-45-69c5-46-57-63-70-21-2 6-4 13-4 21h74" id="H"/><path fill="#4c535d" d="M24-248c93 1 206-16 204 79-1 75-69 88-152 82V0H24v-248zm52 121c47 0 100 7 100-41 0-47-54-39-100-39v80" id="I"/><path fill="#4c535d" d="M110-194c64 0 96 36 96 99 0 64-35 99-97 99-61 0-95-36-95-99 0-62 34-99 96-99zm-1 164c35 0 45-28 45-65 0-40-10-65-43-65-34 0-45 26-45 65 0 36 10 65 43 65" id="J"/><path fill="#4c535d" d="M135-194c53 0 70 44 70 98 0 56-19 98-73 100-31 1-45-17-59-34 3 33 2 69 2 105H25l-1-265h48c2 10 0 23 3 31 11-24 29-35 60-35zM114-30c33 0 39-31 40-66 0-38-9-64-40-64-56 0-55 130 0 130" id="K"/><path fill="#4c535d" d="M67-125c0 54 23 88 75 88 28 0 53-7 68-21v-34h-60v-39h108v91C232-14 192 4 140 4 58 4 20-42 15-125 8-236 126-280 215-234c19 10 29 26 37 47l-47 15c-11-23-29-39-63-39-53 1-75 33-75 86" id="L"/><path fill="#4c535d" d="M115-3C79 11 28 4 28-45v-112H4v-33h27l15-45h31v45h36v33H77v99c-1 23 16 31 38 25v30" id="M"/><g id="a"><use transform="matrix(0.06172839506172839,0,0,0.06172839506172839,0,0)" xlink:href="#C"/><use transform="matrix(0.06172839506172839,0,0,0.06172839506172839,13.518518518518517,0)" xlink:href="#D"/><use transform="matrix(0.06172839506172839,0,0,0.06172839506172839,25.864197530864196,0)" xlink:href="#E"/><use transform="matrix(0.06172839506172839,0,0,0.06172839506172839,39.382716049382715,0)" xlink:href="#F"/><use transform="matrix(0.06172839506172839,0,0,0.06172839506172839,52.901234567901234,0)" xlink:href="#G"/><use transform="matrix(0.06172839506172839,0,0,0.06172839506172839,59.074074074074076,0)" xlink:href="#H"/><use transform="matrix(0.06172839506172839,0,0,0.06172839506172839,71.41975308641976,0)" xlink:href="#I"/><use transform="matrix(0.06172839506172839,0,0,0.06172839506172839,86.23456790123457,0)" xlink:href="#H"/><use transform="matrix(0.06172839506172839,0,0,0.06172839506172839,98.58024691358025,0)" xlink:href="#J"/><use transform="matrix(0.06172839506172839,0,0,0.06172839506172839,112.09876543209877,0)" xlink:href="#K"/><use transform="matrix(0.06172839506172839,0,0,0.06172839506172839,125.61728395061729,0)" xlink:href="#G"/><use transform="matrix(0.06172839506172839,0,0,0.06172839506172839,131.79012345679013,0)" xlink:href="#H"/><use transform="matrix(0.06172839506172839,0,0,0.06172839506172839,144.1358024691358,0)" xlink:href="#L"/><use transform="matrix(0.06172839506172839,0,0,0.06172839506172839,161.41975308641975,0)" xlink:href="#H"/><use transform="matrix(0.06172839506172839,0,0,0.06172839506172839,173.76543209876542,0)" xlink:href="#M"/></g><path fill="#4c535d" d="M230 0l2-204L168 0h-37L68-204 70 0H24v-248h70l56 185 57-185h69V0h-46" id="N"/><path fill="#4c535d" d="M24 0v-248h195v40H76v63h132v40H76v65h150V0H24" id="O"/><path fill="#4c535d" d="M136-208V0H84v-208H4v-40h212v40h-80" id="P"/><path fill="#4c535d" d="M186 0v-106H76V0H24v-248h52v99h110v-99h50V0h-50" id="Q"/><path fill="#4c535d" d="M140-251c80 0 125 45 125 126S219 4 139 4C58 4 15-44 15-125s44-126 125-126zm-1 214c52 0 73-35 73-88 0-50-21-86-72-86-52 0-73 35-73 86s22 88 72 88" id="R"/><path fill="#4c535d" d="M24-248c120-7 223 5 221 122C244-46 201 0 124 0H24v-248zM76-40c74 7 117-18 117-86 0-67-45-88-117-82v168" id="S"/><path fill="#4c535d" d="M35-132v-50h50v50H35zM35 0v-49h50V0H35" id="T"/><g id="b"><use transform="matrix(0.06172839506172839,0,0,0.06172839506172839,0,0)" xlink:href="#N"/><use transform="matrix(0.06172839506172839,0,0,0.06172839506172839,18.456790123456788,0)" xlink:href="#O"/><use transform="matrix(0.06172839506172839,0,0,0.06172839506172839,33.2716049382716,0)" xlink:href="#P"/><use transform="matrix(0.06172839506172839,0,0,0.06172839506172839,46.79012345679012,0)" xlink:href="#Q"/><use transform="matrix(0.06172839506172839,0,0,0.06172839506172839,62.77777777777777,0)" xlink:href="#R"/><use transform="matrix(0.06172839506172839,0,0,0.06172839506172839,80.06172839506172,0)" xlink:href="#S"/><use transform="matrix(0.06172839506172839,0,0,0.06172839506172839,96.04938271604938,0)" xlink:href="#T"/></g><path fill="#4c535d" d="M143 4C61 4 22-44 18-125c-5-107 100-154 193-111 17 8 29 25 37 43l-32 9c-13-25-37-40-76-40-61 0-88 39-88 99 0 61 29 100 91 101 35 0 62-11 79-27v-45h-74v-28h105v86C228-13 192 4 143 4" id="U"/><path fill="#4c535d" d="M30 0v-248h187v28H63v79h144v27H63v87h162V0H30" id="V"/><path fill="#4c535d" d="M127-220V0H93v-220H8v-28h204v28h-85" id="W"/><g id="c"><use transform="matrix(0.06172839506172839,0,0,0.06172839506172839,0,0)" xlink:href="#U"/><use transform="matrix(0.06172839506172839,0,0,0.06172839506172839,17.28395061728395,0)" xlink:href="#V"/><use transform="matrix(0.06172839506172839,0,0,0.06172839506172839,32.09876543209876,0)" xlink:href="#W"/></g><path fill="#4c535d" d="M240-174c0 40-23 61-54 70L253 0h-59l-57-94H76V0H24v-248c93 4 217-23 216 74zM76-134c48-2 112 12 112-38 0-48-66-32-112-35v73" id="X"/><path fill="#4c535d" d="M238-95c0 69-44 99-111 99C63 4 22-25 22-93v-155h51v151c-1 38 19 59 55 60 90 1 49-130 58-211h52v153" id="Y"/><g id="d"><use transform="matrix(0.06172839506172839,0,0,0.06172839506172839,0,0)" xlink:href="#X"/><use transform="matrix(0.06172839506172839,0,0,0.06172839506172839,15.987654320987653,0)" xlink:href="#R"/><use transform="matrix(0.06172839506172839,0,0,0.06172839506172839,33.2716049382716,0)" xlink:href="#Y"/><use transform="matrix(0.06172839506172839,0,0,0.06172839506172839,49.25925925925925,0)" xlink:href="#P"/><use transform="matrix(0.06172839506172839,0,0,0.06172839506172839,62.77777777777777,0)" xlink:href="#O"/><use transform="matrix(0.06172839506172839,0,0,0.06172839506172839,77.59259259259258,0)" xlink:href="#T"/></g><path fill="#4c535d" d="M0 4l72-265h28L28 4H0" id="Z"/><path fill="#4c535d" d="M115-194c55 1 70 41 70 98S169 2 115 4C84 4 66-9 55-30l1 105H24l-1-265h31l2 30c10-21 28-34 59-34zm-8 174c40 0 45-34 45-75s-6-73-45-74c-42 0-51 32-51 76 0 43 10 73 51 73" id="aa"/><path fill="#4c535d" d="M100-194c63 0 86 42 84 106H49c0 40 14 67 53 68 26 1 43-12 49-29l28 8c-11 28-37 45-77 45C44 4 14-33 15-96c1-61 26-98 85-98zm52 81c6-60-76-77-97-28-3 7-6 17-6 28h103" id="ab"/><path fill="#4c535d" d="M100-194c62-1 85 37 85 99 1 63-27 99-86 99S16-35 15-95c0-66 28-99 85-99zM99-20c44 1 53-31 53-75 0-43-8-75-51-75s-53 32-53 75 10 74 51 75" id="ac"/><path fill="#4c535d" d="M24 0v-261h32V0H24" id="ad"/><g id="e"><use transform="matrix(0.06172839506172839,0,0,0.06172839506172839,0,0)" xlink:href="#Z"/><use transform="matrix(0.06172839506172839,0,0,0.06172839506172839,6.172839506172839,0)" xlink:href="#aa"/><use transform="matrix(0.06172839506172839,0,0,0.06172839506172839,18.51851851851852,0)" xlink:href="#ab"/><use transform="matrix(0.06172839506172839,0,0,0.06172839506172839,30.864197530864196,0)" xlink:href="#ac"/><use transform="matrix(0.06172839506172839,0,0,0.06172839506172839,43.20987654320987,0)" xlink:href="#aa"/><use transform="matrix(0.06172839506172839,0,0,0.06172839506172839,55.55555555555555,0)" xlink:href="#ad"/><use transform="matrix(0.06172839506172839,0,0,0.06172839506172839,60.432098765432094,0)" xlink:href="#ab"/></g><path fill="#4c535d" d="M85 4C-2 5 27-109 22-190h50c7 57-23 150 33 157 60-5 35-97 40-157h50l1 190h-47c-2-12 1-28-3-38-12 25-28 42-61 42" id="ae"/><g id="f"><use transform="matrix(0.06172839506172839,0,0,0.06172839506172839,0,0)" xlink:href="#C"/><use transform="matrix(0.06172839506172839,0,0,0.06172839506172839,13.518518518518517,0)" xlink:href="#D"/><use transform="matrix(0.06172839506172839,0,0,0.06172839506172839,25.864197530864196,0)" xlink:href="#E"/><use transform="matrix(0.06172839506172839,0,0,0.06172839506172839,39.382716049382715,0)" xlink:href="#F"/><use transform="matrix(0.06172839506172839,0,0,0.06172839506172839,52.901234567901234,0)" xlink:href="#G"/><use transform="matrix(0.06172839506172839,0,0,0.06172839506172839,59.074074074074076,0)" xlink:href="#H"/><use transform="matrix(0.06172839506172839,0,0,0.06172839506172839,71.41975308641976,0)" xlink:href="#I"/><use transform="matrix(0.06172839506172839,0,0,0.06172839506172839,86.23456790123457,0)" xlink:href="#H"/><use transform="matrix(0.06172839506172839,0,0,0.06172839506172839,98.58024691358025,0)" xlink:href="#J"/><use transform="matrix(0.06172839506172839,0,0,0.06172839506172839,112.09876543209877,0)" xlink:href="#K"/><use transform="matrix(0.06172839506172839,0,0,0.06172839506172839,125.61728395061729,0)" xlink:href="#G"/><use transform="matrix(0.06172839506172839,0,0,0.06172839506172839,131.79012345679013,0)" xlink:href="#H"/><use transform="matrix(0.06172839506172839,0,0,0.06172839506172839,144.1358024691358,0)" xlink:href="#I"/><use transform="matrix(0.06172839506172839,0,0,0.06172839506172839,158.9506172839506,0)" xlink:href="#ae"/><use transform="matrix(0.06172839506172839,0,0,0.06172839506172839,172.4691358024691,0)" xlink:href="#M"/></g><path fill="#4c535d" d="M30-248c87 1 191-15 191 75 0 78-77 80-158 76V0H30v-248zm33 125c57 0 124 11 124-50 0-59-68-47-124-48v98" id="af"/><path fill="#4c535d" d="M232-93c-1 65-40 97-104 97C67 4 28-28 28-90v-158h33c8 89-33 224 67 224 102 0 64-133 71-224h33v155" id="ag"/><g id="g"><use transform="matrix(0.06172839506172839,0,0,0.06172839506172839,0,0)" xlink:href="#af"/><use transform="matrix(0.06172839506172839,0,0,0.06172839506172839,14.814814814814813,0)" xlink:href="#ag"/><use transform="matrix(0.06172839506172839,0,0,0.06172839506172839,30.80246913580247,0)" xlink:href="#W"/></g><g id="h"><use transform="matrix(0.06172839506172839,0,0,0.06172839506172839,0,0)" xlink:href="#X"/><use transform="matrix(0.06172839506172839,0,0,0.06172839506172839,15.987654320987653,0)" xlink:href="#R"/><use transform="matrix(0.06172839506172839,0,0,0.06172839506172839,33.2716049382716,0)" xlink:href="#Y"/><use transform="matrix(0.06172839506172839,0,0,0.06172839506172839,49.25925925925925,0)" xlink:href="#P"/><use transform="matrix(0.06172839506172839,0,0,0.06172839506172839,62.77777777777777,0)" xlink:href="#O"/><use transform="matrix(0.06172839506172839,0,0,0.06172839506172839,77.59259259259258,0)" xlink:href="#T"/></g><path fill="#4c535d" d="M33-154v-36h34v36H33zM33 0v-36h34V0H33" id="ah"/><path fill="#4c535d" d="M24-231v-30h32v30H24zM24 0v-190h32V0H24" id="ai"/><path fill="#4c535d" d="M85-194c31 0 48 13 60 33l-1-100h32l1 261h-30c-2-10 0-23-3-31C134-8 116 4 85 4 32 4 16-35 15-94c0-66 23-100 70-100zm9 24c-40 0-46 34-46 75 0 40 6 74 45 74 42 0 51-32 51-76 0-42-9-74-50-73" id="aj"/><g id="i"><use transform="matrix(0.06172839506172839,0,0,0.06172839506172839,0,0)" xlink:href="#Z"/><use transform="matrix(0.06172839506172839,0,0,0.06172839506172839,6.172839506172839,0)" xlink:href="#aa"/><use transform="matrix(0.06172839506172839,0,0,0.06172839506172839,18.51851851851852,0)" xlink:href="#ab"/><use transform="matrix(0.06172839506172839,0,0,0.06172839506172839,30.864197530864196,0)" xlink:href="#ac"/><use transform="matrix(0.06172839506172839,0,0,0.06172839506172839,43.20987654320987,0)" xlink:href="#aa"/><use transform="matrix(0.06172839506172839,0,0,0.06172839506172839,55.55555555555555,0)" xlink:href="#ad"/><use transform="matrix(0.06172839506172839,0,0,0.06172839506172839,60.432098765432094,0)" xlink:href="#ab"/><use transform="matrix(0.06172839506172839,0,0,0.06172839506172839,72.77777777777777,0)" xlink:href="#Z"/><use transform="matrix(0.06172839506172839,0,0,0.06172839506172839,78.9506172839506,0)" xlink:href="#ah"/><use transform="matrix(0.06172839506172839,0,0,0.06172839506172839,85.12345679012344,0)" xlink:href="#ai"/><use transform="matrix(0.06172839506172839,0,0,0.06172839506172839,89.99999999999999,0)" xlink:href="#aj"/></g><g id="j"><use transform="matrix(0.06172839506172839,0,0,0.06172839506172839,0,0)" xlink:href="#C"/><use transform="matrix(0.06172839506172839,0,0,0.06172839506172839,13.518518518518517,0)" xlink:href="#D"/><use transform="matrix(0.06172839506172839,0,0,0.06172839506172839,25.864197530864196,0)" xlink:href="#E"/><use transform="matrix(0.06172839506172839,0,0,0.06172839506172839,39.382716049382715,0)" xlink:href="#F"/><use transform="matrix(0.06172839506172839,0,0,0.06172839506172839,52.901234567901234,0)" xlink:href="#G"/><use transform="matrix(0.06172839506172839,0,0,0.06172839506172839,59.074074074074076,0)" xlink:href="#H"/><use transform="matrix(0.06172839506172839,0,0,0.06172839506172839,71.41975308641976,0)" xlink:href="#I"/><use transform="matrix(0.06172839506172839,0,0,0.06172839506172839,86.23456790123457,0)" xlink:href="#H"/><use transform="matrix(0.06172839506172839,0,0,0.06172839506172839,98.58024691358025,0)" xlink:href="#J"/><use transform="matrix(0.06172839506172839,0,0,0.06172839506172839,112.09876543209877,0)" xlink:href="#K"/><use transform="matrix(0.06172839506172839,0,0,0.06172839506172839,125.61728395061729,0)" xlink:href="#G"/><use transform="matrix(0.06172839506172839,0,0,0.06172839506172839,131.79012345679013,0)" xlink:href="#H"/><use transform="matrix(0.06172839506172839,0,0,0.06172839506172839,144.1358024691358,0)" xlink:href="#L"/><use transform="matrix(0.06172839506172839,0,0,0.06172839506172839,161.41975308641975,0)" xlink:href="#H"/><use transform="matrix(0.06172839506172839,0,0,0.06172839506172839,173.76543209876542,0)" xlink:href="#M"/><use transform="matrix(0.06172839506172839,0,0,0.06172839506172839,181.1111111111111,0)" xlink:href="#R"/><use transform="matrix(0.06172839506172839,0,0,0.06172839506172839,198.39506172839504,0)" xlink:href="#E"/><use transform="matrix(0.06172839506172839,0,0,0.06172839506172839,211.91358024691354,0)" xlink:href="#H"/></g><g id="k"><use transform="matrix(0.06172839506172839,0,0,0.06172839506172839,0,0)" xlink:href="#C"/><use transform="matrix(0.06172839506172839,0,0,0.06172839506172839,13.518518518518517,0)" xlink:href="#D"/><use transform="matrix(0.06172839506172839,0,0,0.06172839506172839,25.864197530864196,0)" xlink:href="#E"/><use transform="matrix(0.06172839506172839,0,0,0.06172839506172839,39.382716049382715,0)" xlink:href="#F"/><use transform="matrix(0.06172839506172839,0,0,0.06172839506172839,52.901234567901234,0)" xlink:href="#G"/><use transform="matrix(0.06172839506172839,0,0,0.06172839506172839,59.074074074074076,0)" xlink:href="#H"/><use transform="matrix(0.06172839506172839,0,0,0.06172839506172839,71.41975308641976,0)" xlink:href="#I"/><use transform="matrix(0.06172839506172839,0,0,0.06172839506172839,86.23456790123457,0)" xlink:href="#H"/><use transform="matrix(0.06172839506172839,0,0,0.06172839506172839,98.58024691358025,0)" xlink:href="#J"/><use transform="matrix(0.06172839506172839,0,0,0.06172839506172839,112.09876543209877,0)" xlink:href="#K"/><use transform="matrix(0.06172839506172839,0,0,0.06172839506172839,125.61728395061729,0)" xlink:href="#G"/><use transform="matrix(0.06172839506172839,0,0,0.06172839506172839,131.79012345679013,0)" xlink:href="#H"/><use transform="matrix(0.06172839506172839,0,0,0.06172839506172839,144.1358024691358,0)" xlink:href="#S"/><use transform="matrix(0.06172839506172839,0,0,0.06172839506172839,160.12345679012344,0)" xlink:href="#H"/><use transform="matrix(0.06172839506172839,0,0,0.06172839506172839,172.4691358024691,0)" xlink:href="#G"/><use transform="matrix(0.06172839506172839,0,0,0.06172839506172839,178.64197530864195,0)" xlink:href="#H"/><use transform="matrix(0.06172839506172839,0,0,0.06172839506172839,190.98765432098762,0)" xlink:href="#M"/><use transform="matrix(0.06172839506172839,0,0,0.06172839506172839,198.3333333333333,0)" xlink:href="#H"/></g><path fill="#4c535d" d="M30-248c118-7 216 8 213 122C240-48 200 0 122 0H30v-248zM63-27c89 8 146-16 146-99s-60-101-146-95v194" id="ak"/><path fill="#4c535d" d="M30 0v-248h33v221h125V0H30" id="al"/><g id="l"><use transform="matrix(0.06172839506172839,0,0,0.06172839506172839,0,0)" xlink:href="#ak"/><use transform="matrix(0.06172839506172839,0,0,0.06172839506172839,15.987654320987653,0)" xlink:href="#V"/><use transform="matrix(0.06172839506172839,0,0,0.06172839506172839,30.80246913580247,0)" xlink:href="#al"/><use transform="matrix(0.06172839506172839,0,0,0.06172839506172839,43.148148148148145,0)" xlink:href="#V"/><use transform="matrix(0.06172839506172839,0,0,0.06172839506172839,57.96296296296296,0)" xlink:href="#W"/><use transform="matrix(0.06172839506172839,0,0,0.06172839506172839,71.48148148148148,0)" xlink:href="#V"/></g><g id="m"><use transform="matrix(0.06172839506172839,0,0,0.06172839506172839,0,0)" xlink:href="#Z"/><use transform="matrix(0.06172839506172839,0,0,0.06172839506172839,6.172839506172839,0)" xlink:href="#aa"/><use transform="matrix(0.06172839506172839,0,0,0.06172839506172839,18.51851851851852,0)" xlink:href="#ab"/><use transform="matrix(0.06172839506172839,0,0,0.06172839506172839,30.864197530864196,0)" xlink:href="#ac"/><use transform="matrix(0.06172839506172839,0,0,0.06172839506172839,43.20987654320987,0)" xlink:href="#aa"/><use transform="matrix(0.06172839506172839,0,0,0.06172839506172839,55.55555555555555,0)" xlink:href="#ad"/><use transform="matrix(0.06172839506172839,0,0,0.06172839506172839,60.432098765432094,0)" xlink:href="#ab"/><use transform="matrix(0.06172839506172839,0,0,0.06172839506172839,72.77777777777777,0)" xlink:href="#Z"/><use transform="matrix(0.06172839506172839,0,0,0.06172839506172839,78.9506172839506,0)" xlink:href="#ah"/><use transform="matrix(0.06172839506172839,0,0,0.06172839506172839,85.12345679012344,0)" xlink:href="#ai"/><use transform="matrix(0.06172839506172839,0,0,0.06172839506172839,89.99999999999999,0)" xlink:href="#aj"/></g><path fill="#4c535d" d="M137-138c1-29-70-34-71-4 15 46 118 7 119 86 1 83-164 76-172 9l43-7c4 19 20 25 44 25 33 8 57-30 24-41C81-84 22-81 20-136c-2-80 154-74 161-7" id="am"/><g id="n"><use transform="matrix(0.06172839506172839,0,0,0.06172839506172839,0,0)" xlink:href="#C"/><use transform="matrix(0.06172839506172839,0,0,0.06172839506172839,13.518518518518517,0)" xlink:href="#D"/><use transform="matrix(0.06172839506172839,0,0,0.06172839506172839,25.864197530864196,0)" xlink:href="#E"/><use transform="matrix(0.06172839506172839,0,0,0.06172839506172839,39.382716049382715,0)" xlink:href="#F"/><use transform="matrix(0.06172839506172839,0,0,0.06172839506172839,52.901234567901234,0)" xlink:href="#G"/><use transform="matrix(0.06172839506172839,0,0,0.06172839506172839,59.074074074074076,0)" xlink:href="#H"/><use transform="matrix(0.06172839506172839,0,0,0.06172839506172839,71.41975308641976,0)" xlink:href="#I"/><use transform="matrix(0.06172839506172839,0,0,0.06172839506172839,86.23456790123457,0)" xlink:href="#H"/><use transform="matrix(0.06172839506172839,0,0,0.06172839506172839,98.58024691358025,0)" xlink:href="#J"/><use transform="matrix(0.06172839506172839,0,0,0.06172839506172839,112.09876543209877,0)" xlink:href="#K"/><use transform="matrix(0.06172839506172839,0,0,0.06172839506172839,125.61728395061729,0)" xlink:href="#G"/><use transform="matrix(0.06172839506172839,0,0,0.06172839506172839,131.79012345679013,0)" xlink:href="#H"/><use transform="matrix(0.06172839506172839,0,0,0.06172839506172839,144.1358024691358,0)" xlink:href="#I"/><use transform="matrix(0.06172839506172839,0,0,0.06172839506172839,158.9506172839506,0)" xlink:href="#J"/><use transform="matrix(0.06172839506172839,0,0,0.06172839506172839,172.4691358024691,0)" xlink:href="#am"/><use transform="matrix(0.06172839506172839,0,0,0.06172839506172839,184.81481481481478,0)" xlink:href="#M"/></g><path fill="#4c535d" d="M140-251c81 0 123 46 123 126C263-46 219 4 140 4 59 4 17-45 17-125s42-126 123-126zm0 227c63 0 89-41 89-101s-29-99-89-99c-61 0-89 39-89 99S79-25 140-24" id="an"/><path fill="#4c535d" d="M185-189c-5-48-123-54-124 2 14 75 158 14 163 119 3 78-121 87-175 55-17-10-28-26-33-46l33-7c5 56 141 63 141-1 0-78-155-14-162-118-5-82 145-84 179-34 5 7 8 16 11 25" id="ao"/><g id="o"><use transform="matrix(0.06172839506172839,0,0,0.06172839506172839,0,0)" xlink:href="#af"/><use transform="matrix(0.06172839506172839,0,0,0.06172839506172839,14.814814814814813,0)" xlink:href="#an"/><use transform="matrix(0.06172839506172839,0,0,0.06172839506172839,32.09876543209876,0)" xlink:href="#ao"/><use transform="matrix(0.06172839506172839,0,0,0.06172839506172839,46.91358024691357,0)" xlink:href="#W"/></g><g id="p"><use transform="matrix(0.06172839506172839,0,0,0.06172839506172839,0,0)" xlink:href="#Z"/><use transform="matrix(0.06172839506172839,0,0,0.06172839506172839,6.172839506172839,0)" xlink:href="#aa"/><use transform="matrix(0.06172839506172839,0,0,0.06172839506172839,18.51851851851852,0)" xlink:href="#ab"/><use transform="matrix(0.06172839506172839,0,0,0.06172839506172839,30.864197530864196,0)" xlink:href="#ac"/><use transform="matrix(0.06172839506172839,0,0,0.06172839506172839,43.20987654320987,0)" xlink:href="#aa"/><use transform="matrix(0.06172839506172839,0,0,0.06172839506172839,55.55555555555555,0)" xlink:href="#ad"/><use transform="matrix(0.06172839506172839,0,0,0.06172839506172839,60.432098765432094,0)" xlink:href="#ab"/></g><path fill="#4c535d" d="M199 0l-22-63H83L61 0H9l90-248h61L250 0h-51zm-33-102l-36-108c-10 38-24 72-36 108h72" id="ap"/><path fill="#4c535d" d="M220-157c-53 9-28 100-34 157h-49v-107c1-27-5-49-29-50C55-147 81-57 75 0H25l-1-190h47c2 12-1 28 3 38 10-53 101-56 108 0 13-22 24-43 59-42 82 1 51 116 57 194h-49v-107c-1-25-5-48-29-50" id="aq"/><path fill="#4c535d" d="M12 0v-35l95-120H19v-35h142v35L67-36h103V0H12" id="ar"/><g id="q"><use transform="matrix(0.06172839506172839,0,0,0.06172839506172839,0,0)" xlink:href="#ap"/><use transform="matrix(0.06172839506172839,0,0,0.06172839506172839,15.987654320987653,0)" xlink:href="#aq"/><use transform="matrix(0.06172839506172839,0,0,0.06172839506172839,35.74074074074074,0)" xlink:href="#D"/><use transform="matrix(0.06172839506172839,0,0,0.06172839506172839,48.08641975308642,0)" xlink:href="#ar"/><use transform="matrix(0.06172839506172839,0,0,0.06172839506172839,59.19753086419753,0)" xlink:href="#J"/><use transform="matrix(0.06172839506172839,0,0,0.06172839506172839,72.71604938271605,0)" xlink:href="#E"/></g><path fill="#4c535d" d="M123 10C108 53 80 86 19 72V37c35 8 53-11 59-39L3-190h52l48 148c12-52 28-100 44-148h51" id="as"/><path fill="#4c535d" d="M182-130c37 4 62 22 62 59C244 23 116-4 24 0v-248c84 5 203-23 205 63 0 31-19 50-47 55zM76-148c40-3 101 13 101-30 0-44-60-28-101-31v61zm0 110c48-3 116 14 116-37 0-48-69-32-116-35v72" id="at"/><g id="r"><use transform="matrix(0.06172839506172839,0,0,0.06172839506172839,0,0)" xlink:href="#S"/><use transform="matrix(0.06172839506172839,0,0,0.06172839506172839,15.987654320987653,0)" xlink:href="#as"/><use transform="matrix(0.06172839506172839,0,0,0.06172839506172839,28.333333333333332,0)" xlink:href="#E"/><use transform="matrix(0.06172839506172839,0,0,0.06172839506172839,41.85185185185185,0)" xlink:href="#D"/><use transform="matrix(0.06172839506172839,0,0,0.06172839506172839,54.197530864197525,0)" xlink:href="#aq"/><use transform="matrix(0.06172839506172839,0,0,0.06172839506172839,73.9506172839506,0)" xlink:href="#J"/><use transform="matrix(0.06172839506172839,0,0,0.06172839506172839,87.46913580246913,0)" xlink:href="#S"/><use transform="matrix(0.06172839506172839,0,0,0.06172839506172839,103.45679012345678,0)" xlink:href="#at"/></g><path fill="#3a414a" d="M136-208V0H84v-208H4v-40h212v40h-80" id="au"/><path fill="#3a414a" d="M199 0l-22-63H83L61 0H9l90-248h61L250 0h-51zm-33-102l-36-108c-10 38-24 72-36 108h72" id="av"/><path fill="#3a414a" d="M182-130c37 4 62 22 62 59C244 23 116-4 24 0v-248c84 5 203-23 205 63 0 31-19 50-47 55zM76-148c40-3 101 13 101-30 0-44-60-28-101-31v61zm0 110c48-3 116 14 116-37 0-48-69-32-116-35v72" id="aw"/><path fill="#3a414a" d="M24 0v-248h52v208h133V0H24" id="ax"/><path fill="#3a414a" d="M24 0v-248h195v40H76v63h132v40H76v65h150V0H24" id="ay"/><path fill="#3a414a" d="M35-132v-50h50v50H35zM35 0v-49h50V0H35" id="az"/><g id="s"><use transform="matrix(0.06172839506172839,0,0,0.06172839506172839,0,0)" xlink:href="#au"/><use transform="matrix(0.06172839506172839,0,0,0.06172839506172839,11.851851851851851,0)" xlink:href="#av"/><use transform="matrix(0.06172839506172839,0,0,0.06172839506172839,27.839506172839506,0)" xlink:href="#aw"/><use transform="matrix(0.06172839506172839,0,0,0.06172839506172839,43.82716049382716,0)" xlink:href="#ax"/><use transform="matrix(0.06172839506172839,0,0,0.06172839506172839,57.34567901234568,0)" xlink:href="#ay"/><use transform="matrix(0.06172839506172839,0,0,0.06172839506172839,72.1604938271605,0)" xlink:href="#az"/></g><path fill="#3a414a" d="M115-194c55 1 70 41 70 98S169 2 115 4C84 4 66-9 55-30l1 105H24l-1-265h31l2 30c10-21 28-34 59-34zm-8 174c40 0 45-34 45-75s-6-73-45-74c-42 0-51 32-51 76 0 43 10 73 51 73" id="aA"/><path fill="#3a414a" d="M100-194c63 0 86 42 84 106H49c0 40 14 67 53 68 26 1 43-12 49-29l28 8c-11 28-37 45-77 45C44 4 14-33 15-96c1-61 26-98 85-98zm52 81c6-60-76-77-97-28-3 7-6 17-6 28h103" id="aB"/><path fill="#3a414a" d="M100-194c62-1 85 37 85 99 1 63-27 99-86 99S16-35 15-95c0-66 28-99 85-99zM99-20c44 1 53-31 53-75 0-43-8-75-51-75s-53 32-53 75 10 74 51 75" id="aC"/><path fill="#3a414a" d="M24 0v-261h32V0H24" id="aD"/><g id="t"><use transform="matrix(0.06172839506172839,0,0,0.06172839506172839,0,0)" xlink:href="#aA"/><use transform="matrix(0.06172839506172839,0,0,0.06172839506172839,12.345679012345679,0)" xlink:href="#aB"/><use transform="matrix(0.06172839506172839,0,0,0.06172839506172839,24.691358024691358,0)" xlink:href="#aC"/><use transform="matrix(0.06172839506172839,0,0,0.06172839506172839,37.03703703703704,0)" xlink:href="#aA"/><use transform="matrix(0.06172839506172839,0,0,0.06172839506172839,49.382716049382715,0)" xlink:href="#aD"/><use transform="matrix(0.06172839506172839,0,0,0.06172839506172839,54.25925925925926,0)" xlink:href="#aB"/></g><g id="u"><use transform="matrix(0.06172839506172839,0,0,0.06172839506172839,0,0)" xlink:href="#ap"/><use transform="matrix(0.06172839506172839,0,0,0.06172839506172839,15.987654320987653,0)" xlink:href="#aq"/><use transform="matrix(0.06172839506172839,0,0,0.06172839506172839,35.74074074074074,0)" xlink:href="#D"/><use transform="matrix(0.06172839506172839,0,0,0.06172839506172839,48.08641975308642,0)" xlink:href="#ar"/><use transform="matrix(0.06172839506172839,0,0,0.06172839506172839,59.19753086419753,0)" xlink:href="#J"/><use transform="matrix(0.06172839506172839,0,0,0.06172839506172839,72.71604938271605,0)" xlink:href="#E"/></g><path fill="#4c535d" d="M24 0v-248h52V0H24" id="aE"/><g id="v"><use transform="matrix(0.06172839506172839,0,0,0.06172839506172839,0,0)" xlink:href="#ap"/><use transform="matrix(0.06172839506172839,0,0,0.06172839506172839,15.987654320987653,0)" xlink:href="#I"/><use transform="matrix(0.06172839506172839,0,0,0.06172839506172839,30.80246913580247,0)" xlink:href="#aE"/></g><path fill="#4c535d" d="M231 0h-52l-39-155L100 0H48L-1-190h46L77-45c9-52 24-97 36-145h53l37 145 32-145h46" id="aF"/><g id="w"><use transform="matrix(0.06172839506172839,0,0,0.06172839506172839,0,0)" xlink:href="#L"/><use transform="matrix(0.06172839506172839,0,0,0.06172839506172839,17.28395061728395,0)" xlink:href="#D"/><use transform="matrix(0.06172839506172839,0,0,0.06172839506172839,29.629629629629626,0)" xlink:href="#M"/><use transform="matrix(0.06172839506172839,0,0,0.06172839506172839,36.9753086419753,0)" xlink:href="#H"/><use transform="matrix(0.06172839506172839,0,0,0.06172839506172839,49.32098765432098,0)" xlink:href="#aF"/><use transform="matrix(0.06172839506172839,0,0,0.06172839506172839,66.60493827160494,0)" xlink:href="#D"/><use transform="matrix(0.06172839506172839,0,0,0.06172839506172839,78.95061728395062,0)" xlink:href="#as"/></g><g id="x"><use transform="matrix(0.06790123456790122,0,0,0.06790123456790122,0,0)" xlink:href="#ap"/><use transform="matrix(0.06790123456790122,0,0,0.06790123456790122,17.586419753086414,0)" xlink:href="#I"/><use transform="matrix(0.06790123456790122,0,0,0.06790123456790122,33.88271604938271,0)" xlink:href="#aE"/></g><path fill="#4c535d" d="M169-182c-1-43-94-46-97-3 18 66 151 10 154 114 3 95-165 93-204 36-6-8-10-19-12-30l50-8c3 46 112 56 116 5-17-69-150-10-154-114-4-87 153-88 188-35 5 8 8 18 10 28" id="aG"/><g id="y"><use transform="matrix(0.06790123456790122,0,0,0.06790123456790122,0,0)" xlink:href="#at"/><use transform="matrix(0.06790123456790122,0,0,0.06790123456790122,17.586419753086414,0)" xlink:href="#ap"/><use transform="matrix(0.06790123456790122,0,0,0.06790123456790122,35.17283950617283,0)" xlink:href="#aG"/><use transform="matrix(0.06790123456790122,0,0,0.06790123456790122,51.46913580246911,0)" xlink:href="#O"/></g><path fill="#4c535d" d="M24 0v-248h52v208h133V0H24" id="aH"/><g id="z"><use transform="matrix(0.06790123456790122,0,0,0.06790123456790122,0,0)" xlink:href="#Y"/><use transform="matrix(0.06790123456790122,0,0,0.06790123456790122,17.586419753086414,0)" xlink:href="#X"/><use transform="matrix(0.06790123456790122,0,0,0.06790123456790122,35.17283950617283,0)" xlink:href="#aH"/><use transform="matrix(0.06790123456790122,0,0,0.06790123456790122,50.043209876543195,0)" xlink:href="#T"/></g><path fill="#4c535d" d="M106-169C34-169 62-67 57 0H25v-261h32l-1 103c12-21 28-36 61-36 89 0 53 116 60 194h-32v-121c2-32-8-49-39-48" id="aI"/><path fill="#4c535d" d="M59-47c-2 24 18 29 38 22v24C64 9 27 4 27-40v-127H5v-23h24l9-43h21v43h35v23H59v120" id="aJ"/><path fill="#4c535d" d="M135-143c-3-34-86-38-87 0 15 53 115 12 119 90S17 21 10-45l28-5c4 36 97 45 98 0-10-56-113-15-118-90-4-57 82-63 122-42 12 7 21 19 24 35" id="aK"/><path fill="#4c535d" d="M27 0v-27h64v-190l-56 39v-29l58-41h29v221h61V0H27" id="aL"/><path fill="#4c535d" d="M64 0c3-98 48-159 88-221H18v-27h164v26C143-157 98-101 97 0H64" id="aM"/><path fill="#4c535d" d="M177-190C167-65 218 103 67 71c-23-6-38-20-44-43l32-5c15 47 100 32 89-28v-30C133-14 115 1 83 1 29 1 15-40 15-95c0-56 16-97 71-98 29-1 48 16 59 35 1-10 0-23 2-32h30zM94-22c36 0 50-32 50-73 0-42-14-75-50-75-39 0-46 34-46 75s6 73 46 73" id="aN"/><path fill="#4c535d" d="M96-169c-40 0-48 33-48 73s9 75 48 75c24 0 41-14 43-38l32 2c-6 37-31 61-74 61-59 0-76-41-82-99-10-93 101-131 147-64 4 7 5 14 7 22l-32 3c-4-21-16-35-41-35" id="aO"/><path fill="#4c535d" d="M143 0L79-87 56-68V0H24v-261h32v163l83-92h37l-77 82L181 0h-38" id="aP"/><path fill="#4c535d" d="M101-251c68 0 85 55 85 127S166 4 100 4C33 4 14-52 14-124c0-73 17-127 87-127zm-1 229c47 0 54-49 54-102s-4-102-53-102c-51 0-55 48-55 102 0 53 5 102 54 102" id="aQ"/><path fill="#4c535d" d="M54-142c48-35 137-8 131 61C196 18 31 33 14-55l32-4c7 23 22 37 52 37 35-1 51-22 54-58 4-55-73-65-99-34H22l8-134h141v27H59" id="aR"/><path fill="#4c535d" d="M108 0H70L1-190h34L89-25l56-165h34" id="aS"/><path fill="#4c535d" d="M101-251c82-7 93 87 43 132L82-64C71-53 59-42 53-27h129V0H18c2-99 128-94 128-182 0-28-16-43-45-43s-46 15-49 41l-32-3c6-41 34-60 81-64" id="aT"/><path fill="#4c535d" d="M33 0v-38h34V0H33" id="aU"/><path fill="#4c535d" d="M141 0L90-78 38 0H4l68-98-65-92h35l48 74 47-74h35l-64 92 68 98h-35" id="aV"/><path fill="#4c535d" d="M84 4C-5 8 30-112 23-190h32v120c0 31 7 50 39 49 72-2 45-101 50-169h31l1 190h-30c-1-10 1-25-2-33-11 22-28 36-60 37" id="aW"/><path fill="#4c535d" d="M16-82v-28h88v28H16" id="aX"/><path fill="#4c535d" d="M141-36C126-15 110 5 73 4 37 3 15-17 15-53c-1-64 63-63 125-63 3-35-9-54-41-54-24 1-41 7-42 31l-33-3c5-37 33-52 76-52 45 0 72 20 72 64v82c-1 20 7 32 28 27v20c-31 9-61-2-59-35zM48-53c0 20 12 33 32 33 41-3 63-29 60-74-43 2-92-5-92 41" id="aY"/><path fill="#4c535d" d="M210-169c-67 3-38 105-44 169h-31v-121c0-29-5-50-35-48C34-165 62-65 56 0H25l-1-190h30c1 10-1 24 2 32 10-44 99-50 107 0 11-21 27-35 58-36 85-2 47 119 55 194h-31v-121c0-29-5-49-35-48" id="aZ"/><path fill="#4c535d" d="M9 0v-24l116-142H16v-24h144v24L44-24h123V0H9" id="ba"/><path fill="#4c535d" d="M117-194c89-4 53 116 60 194h-32v-121c0-31-8-49-39-48C34-167 62-67 57 0H25l-1-190h30c1 10-1 24 2 32 11-22 29-35 61-36" id="bb"/><path fill="#4c535d" d="M206 0h-36l-40-164L89 0H53L-1-190h32L70-26l43-164h34l41 164 42-164h31" id="bc"/><g id="A"><use transform="matrix(0.05061728395061728,0,0,0.05061728395061728,0,0)" xlink:href="#aI"/><use transform="matrix(0.05061728395061728,0,0,0.05061728395061728,10.123456790123456,0)" xlink:href="#aJ"/><use transform="matrix(0.05061728395061728,0,0,0.05061728395061728,15.185185185185183,0)" xlink:href="#aJ"/><use transform="matrix(0.05061728395061728,0,0,0.05061728395061728,20.24691358024691,0)" xlink:href="#aa"/><use transform="matrix(0.05061728395061728,0,0,0.05061728395061728,30.370370370370367,0)" xlink:href="#aK"/><use transform="matrix(0.05061728395061728,0,0,0.05061728395061728,39.48148148148148,0)" xlink:href="#ah"/><use transform="matrix(0.05061728395061728,0,0,0.05061728395061728,44.54320987654321,0)" xlink:href="#Z"/><use transform="matrix(0.05061728395061728,0,0,0.05061728395061728,49.60493827160494,0)" xlink:href="#Z"/><use transform="matrix(0.05061728395061728,0,0,0.05061728395061728,54.66666666666666,0)" xlink:href="#aL"/><use transform="matrix(0.05061728395061728,0,0,0.05061728395061728,64.79012345679013,0)" xlink:href="#aM"/><use transform="matrix(0.05061728395061728,0,0,0.05061728395061728,74.91358024691358,0)" xlink:href="#aN"/><use transform="matrix(0.05061728395061728,0,0,0.05061728395061728,85.03703703703704,0)" xlink:href="#aO"/><use transform="matrix(0.05061728395061728,0,0,0.05061728395061728,94.14814814814815,0)" xlink:href="#aP"/><use transform="matrix(0.05061728395061728,0,0,0.05061728395061728,103.25925925925927,0)" xlink:href="#ai"/><use transform="matrix(0.05061728395061728,0,0,0.05061728395061728,107.25802469135803,0)" xlink:href="#aQ"/><use transform="matrix(0.05061728395061728,0,0,0.05061728395061728,117.38148148148149,0)" xlink:href="#aR"/><use transform="matrix(0.05061728395061728,0,0,0.05061728395061728,127.50493827160494,0)" xlink:href="#aS"/><use transform="matrix(0.05061728395061728,0,0,0.05061728395061728,136.61604938271606,0)" xlink:href="#aT"/><use transform="matrix(0.05061728395061728,0,0,0.05061728395061728,146.73950617283953,0)" xlink:href="#aU"/><use transform="matrix(0.05061728395061728,0,0,0.05061728395061728,151.80123456790125,0)" xlink:href="#ab"/><use transform="matrix(0.05061728395061728,0,0,0.05061728395061728,161.9246913580247,0)" xlink:href="#aV"/><use transform="matrix(0.05061728395061728,0,0,0.05061728395061728,171.0358024691358,0)" xlink:href="#ab"/><use transform="matrix(0.05061728395061728,0,0,0.05061728395061728,181.15925925925927,0)" xlink:href="#aO"/><use transform="matrix(0.05061728395061728,0,0,0.05061728395061728,190.2703703703704,0)" xlink:href="#aW"/><use transform="matrix(0.05061728395061728,0,0,0.05061728395061728,200.39382716049386,0)" xlink:href="#aJ"/><use transform="matrix(0.05061728395061728,0,0,0.05061728395061728,205.45555555555558,0)" xlink:href="#ab"/><use transform="matrix(0.05061728395061728,0,0,0.05061728395061728,215.57901234567905,0)" xlink:href="#aX"/><use transform="matrix(0.05061728395061728,0,0,0.05061728395061728,221.60246913580244,0)" xlink:href="#aY"/><use transform="matrix(0.05061728395061728,0,0,0.05061728395061728,231.72592592592594,0)" xlink:href="#aa"/><use transform="matrix(0.05061728395061728,0,0,0.05061728395061728,241.84938271604935,0)" xlink:href="#ai"/><use transform="matrix(0.05061728395061728,0,0,0.05061728395061728,245.8481481481481,0)" xlink:href="#aU"/><use transform="matrix(0.05061728395061728,0,0,0.05061728395061728,250.90987654320986,0)" xlink:href="#aW"/><use transform="matrix(0.05061728395061728,0,0,0.05061728395061728,261.0333333333333,0)" xlink:href="#aK"/><use transform="matrix(0.05061728395061728,0,0,0.05061728395061728,270.1444444444444,0)" xlink:href="#aX"/><use transform="matrix(0.05061728395061728,0,0,0.05061728395061728,276.16790123456786,0)" xlink:href="#ab"/><use transform="matrix(0.05061728395061728,0,0,0.05061728395061728,286.2913580246913,0)" xlink:href="#aY"/><use transform="matrix(0.05061728395061728,0,0,0.05061728395061728,296.41481481481475,0)" xlink:href="#aK"/><use transform="matrix(0.05061728395061728,0,0,0.05061728395061728,305.52592592592583,0)" xlink:href="#aJ"/><use transform="matrix(0.05061728395061728,0,0,0.05061728395061728,310.58765432098755,0)" xlink:href="#aX"/><use transform="matrix(0.05061728395061728,0,0,0.05061728395061728,316.61111111111103,0)" xlink:href="#aL"/><use transform="matrix(0.05061728395061728,0,0,0.05061728395061728,326.73456790123447,0)" xlink:href="#aU"/><use transform="matrix(0.05061728395061728,0,0,0.05061728395061728,331.7962962962962,0)" xlink:href="#aY"/><use transform="matrix(0.05061728395061728,0,0,0.05061728395061728,341.91975308641963,0)" xlink:href="#aZ"/><use transform="matrix(0.05061728395061728,0,0,0.05061728395061728,357.0543209876542,0)" xlink:href="#aY"/><use transform="matrix(0.05061728395061728,0,0,0.05061728395061728,367.17777777777764,0)" xlink:href="#ba"/><use transform="matrix(0.05061728395061728,0,0,0.05061728395061728,376.2888888888887,0)" xlink:href="#ac"/><use transform="matrix(0.05061728395061728,0,0,0.05061728395061728,386.41234567901216,0)" xlink:href="#bb"/><use transform="matrix(0.05061728395061728,0,0,0.05061728395061728,396.5358024691356,0)" xlink:href="#aY"/><use transform="matrix(0.05061728395061728,0,0,0.05061728395061728,406.65925925925904,0)" xlink:href="#bc"/><use transform="matrix(0.05061728395061728,0,0,0.05061728395061728,419.7691358024689,0)" xlink:href="#aK"/><use transform="matrix(0.05061728395061728,0,0,0.05061728395061728,428.88024691358004,0)" xlink:href="#aU"/><use transform="matrix(0.05061728395061728,0,0,0.05061728395061728,433.94197530864176,0)" xlink:href="#aO"/><use transform="matrix(0.05061728395061728,0,0,0.05061728395061728,443.0530864197528,0)" xlink:href="#ac"/><use transform="matrix(0.05061728395061728,0,0,0.05061728395061728,453.17654320987623,0)" xlink:href="#aZ"/><use transform="matrix(0.05061728395061728,0,0,0.05061728395061728,468.3111111111108,0)" xlink:href="#Z"/><use transform="matrix(0.05061728395061728,0,0,0.05061728395061728,473.3728395061725,0)" xlink:href="#aj"/><use transform="matrix(0.05061728395061728,0,0,0.05061728395061728,483.49629629629595,0)" xlink:href="#ab"/><use transform="matrix(0.05061728395061728,0,0,0.05061728395061728,493.61975308641945,0)" xlink:href="#aS"/></g><path fill="#3a414a" d="M67-125c0 53 21 87 73 88 37 1 54-22 65-47l45 17C233-25 199 4 140 4 58 4 20-42 15-125 8-235 124-281 211-232c18 10 29 29 36 50l-46 12c-8-25-30-41-62-41-52 0-71 34-72 86" id="bd"/><path fill="#3a414a" d="M25 0v-261h50V0H25" id="be"/><path fill="#3a414a" d="M25-224v-37h50v37H25zM25 0v-190h50V0H25" id="bf"/><path fill="#3a414a" d="M185-48c-13 30-37 53-82 52C43 2 14-33 14-96s30-98 90-98c62 0 83 45 84 108H66c0 31 8 55 39 56 18 0 30-7 34-22zm-45-69c5-46-57-63-70-21-2 6-4 13-4 21h74" id="bg"/><path fill="#3a414a" d="M135-194c87-1 58 113 63 194h-50c-7-57 23-157-34-157-59 0-34 97-39 157H25l-1-190h47c2 12-1 28 3 38 12-26 28-41 61-42" id="bh"/><path fill="#3a414a" d="M115-3C79 11 28 4 28-45v-112H4v-33h27l15-45h31v45h36v33H77v99c-1 23 16 31 38 25v30" id="bi"/><g id="B"><use transform="matrix(0.06172839506172839,0,0,0.06172839506172839,0,0)" xlink:href="#bd"/><use transform="matrix(0.06172839506172839,0,0,0.06172839506172839,15.987654320987653,0)" xlink:href="#be"/><use transform="matrix(0.06172839506172839,0,0,0.06172839506172839,22.160493827160494,0)" xlink:href="#bf"/><use transform="matrix(0.06172839506172839,0,0,0.06172839506172839,28.333333333333332,0)" xlink:href="#bg"/><use transform="matrix(0.06172839506172839,0,0,0.06172839506172839,40.67901234567901,0)" xlink:href="#bh"/><use transform="matrix(0.06172839506172839,0,0,0.06172839506172839,54.19753086419753,0)" xlink:href="#bi"/></g></defs></g></svg>